<?xml version="1.0" encoding="iso-8859-1"?>
<!-- Generator: Adobe Illustrator 16.0.4, SVG Export Plug-In . SVG Version: 6.00 Build 0)  -->
<!DOCTYPE svg PUBLIC "-//W3C//DTD SVG 1.1//EN" "http://www.w3.org/Graphics/SVG/1.1/DTD/svg11.dtd">
<svg version="1.1" xmlns="http://www.w3.org/2000/svg" xmlns:xlink="http://www.w3.org/1999/xlink" x="0px" y="0px"
	 width="484.771px" height="698.771px" viewBox="0 0 484.771 698.771" style="enable-background:new 0 0 484.771 698.771;"
	 xml:space="preserve">
<g id="Big_Stairs">
	<g id="Big_Stairs_1_">
		
			<polygon style="fill:#222221;stroke:#222221;stroke-width:2;stroke-linecap:round;stroke-linejoin:round;stroke-miterlimit:10;" points="
			363.086,1 483.771,70.67 363.074,140.347 242.402,70.676 		"/>
		
			<polygon style="fill:#FFFFFF;stroke:#222221;stroke-width:2;stroke-linecap:round;stroke-linejoin:round;stroke-miterlimit:10;" points="
			242.385,70.675 363.082,140.346 363.082,279.708 242.397,210.024 		"/>
		
			<polygon style="fill:#222221;stroke:#222221;stroke-width:2;stroke-linecap:round;stroke-linejoin:round;stroke-miterlimit:10;" points="
			242.394,210.025 363.078,279.695 242.381,349.372 121.709,279.702 		"/>
		
			<polygon style="fill:#FFFFFF;stroke:#222221;stroke-width:2;stroke-linecap:round;stroke-linejoin:round;stroke-miterlimit:10;" points="
			121.693,279.7 242.39,349.372 242.39,488.733 121.705,419.05 		"/>
		
			<polygon style="fill:#222221;stroke:#222221;stroke-width:2;stroke-linecap:round;stroke-linejoin:round;stroke-miterlimit:10;" points="
			121.701,419.062 242.386,488.731 121.688,558.409 1.017,488.739 		"/>
		
			<polygon style="fill:#FFFFFF;stroke:#222221;stroke-width:2;stroke-linecap:round;stroke-linejoin:round;stroke-miterlimit:10;" points="
			1,488.737 121.697,558.409 121.697,697.771 1.012,628.087 		"/>
		
			<polygon style="fill:#FFFFFF;stroke:#222221;stroke-width:2;stroke-linecap:round;stroke-linejoin:round;stroke-miterlimit:10;" points="
			483.766,70.666 363.08,140.343 363.082,279.696 242.398,349.374 242.398,488.731 121.703,558.411 121.703,697.767 
			151.877,680.346 151.877,575.823 272.568,506.148 272.568,366.794 393.254,297.116 393.252,157.762 483.766,105.508 		"/>
	</g>
</g>
<g id="Layer_1">
</g>
</svg>
