<?xml version="1.0" encoding="iso-8859-1"?>
<!-- Generator: Adobe Illustrator 16.0.4, SVG Export Plug-In . SVG Version: 6.00 Build 0)  -->
<!DOCTYPE svg PUBLIC "-//W3C//DTD SVG 1.1//EN" "http://www.w3.org/Graphics/SVG/1.1/DTD/svg11.dtd">
<svg version="1.1" xmlns="http://www.w3.org/2000/svg" xmlns:xlink="http://www.w3.org/1999/xlink" x="0px" y="0px"
	 width="786.463px" height="594.252px" viewBox="0 0 786.463 594.252" style="enable-background:new 0 0 786.463 594.252;"
	 xml:space="preserve">
<g id="Boxes">
	<g id="Boxes_6_">
		<g id="Boxes_1_">
			<g>
				
					<polygon style="fill:#FFFFFF;stroke:#222221;stroke-width:2;stroke-linecap:round;stroke-linejoin:round;stroke-miterlimit:10;" points="
					182.038,384.217 1.008,279.71 1.008,210.033 182.038,314.539 				"/>
				
					<polygon style="fill:#FFFFFF;stroke:#222221;stroke-width:2;stroke-linecap:round;stroke-linejoin:round;stroke-miterlimit:10;" points="
					182.033,314.545 423.404,175.193 242.375,70.675 1.003,210.033 				"/>
				
					<polygon style="fill:#FFFFFF;stroke:#222221;stroke-width:2;stroke-linecap:round;stroke-linejoin:round;stroke-miterlimit:10;" points="
					182.027,384.215 182.027,314.538 423.41,175.192 423.41,244.87 				"/>
			</g>
		</g>
		<g id="Boxes_4_">
			<g>
				
					<polygon style="fill:#FFFFFF;stroke:#222221;stroke-width:2;stroke-linecap:round;stroke-linejoin:round;stroke-miterlimit:10;" points="
					182.035,314.542 1.005,210.035 1.005,140.358 182.035,244.864 				"/>
				
					<polygon style="fill:#FFFFFF;stroke:#222221;stroke-width:2;stroke-linecap:round;stroke-linejoin:round;stroke-miterlimit:10;" points="
					182.03,244.87 423.4,105.518 242.372,1 1,140.358 				"/>
				
					<polygon style="fill:#FFFFFF;stroke:#222221;stroke-width:2;stroke-linecap:round;stroke-linejoin:round;stroke-miterlimit:10;" points="
					182.024,314.54 182.024,244.863 423.406,105.517 423.406,175.195 				"/>
			</g>
		</g>
		<g id="Boxes_2_">
			<g>
				
					<polygon style="fill:#FFFFFF;stroke:#222221;stroke-width:2;stroke-linecap:round;stroke-linejoin:round;stroke-miterlimit:10;" points="
					363.064,488.734 182.035,384.228 182.035,314.551 363.064,419.057 				"/>
				
					<polygon style="fill:#FFFFFF;stroke:#222221;stroke-width:2;stroke-linecap:round;stroke-linejoin:round;stroke-miterlimit:10;" points="
					363.06,419.062 604.43,279.711 423.402,175.192 182.029,314.551 				"/>
				
					<polygon style="fill:#FFFFFF;stroke:#222221;stroke-width:2;stroke-linecap:round;stroke-linejoin:round;stroke-miterlimit:10;" points="
					363.054,488.732 363.054,419.056 604.436,279.71 604.436,349.388 				"/>
			</g>
		</g>
		<g id="Boxes_5_">
			<g>
				
					<polygon style="fill:#FFFFFF;stroke:#222221;stroke-width:2;stroke-linecap:round;stroke-linejoin:round;stroke-miterlimit:10;" points="
					363.061,419.059 182.032,314.552 182.032,244.875 363.061,349.381 				"/>
				
					<polygon style="fill:#FFFFFF;stroke:#222221;stroke-width:2;stroke-linecap:round;stroke-linejoin:round;stroke-miterlimit:10;" points="
					363.057,349.387 604.426,210.036 423.398,105.517 182.026,244.875 				"/>
				
					<polygon style="fill:#222221;stroke:#222221;stroke-width:2;stroke-linecap:round;stroke-linejoin:round;stroke-miterlimit:10;" points="
					363.051,419.057 363.051,349.381 604.432,210.035 604.432,279.712 				"/>
			</g>
		</g>
		<g id="Boxes_3_">
			<g>
				
					<polygon style="fill:#FFFFFF;stroke:#222221;stroke-width:2;stroke-linecap:round;stroke-linejoin:round;stroke-miterlimit:10;" points="
					544.09,593.252 363.062,488.745 363.062,419.068 544.09,523.574 				"/>
				
					<polygon style="fill:#FFFFFF;stroke:#222221;stroke-width:2;stroke-linecap:round;stroke-linejoin:round;stroke-miterlimit:10;" points="
					544.086,523.58 785.457,384.229 604.428,279.71 363.056,419.068 				"/>
				
					<polygon style="fill:#222221;stroke:#222221;stroke-width:2;stroke-linecap:round;stroke-linejoin:round;stroke-miterlimit:10;" points="
					544.08,593.25 544.08,523.573 785.463,384.228 785.463,453.905 				"/>
			</g>
		</g>
	</g>
</g>
<g id="Layer_1">
</g>
</svg>
