<?xml version="1.0" encoding="iso-8859-1"?>
<!-- Generator: Adobe Illustrator 16.0.4, SVG Export Plug-In . SVG Version: 6.00 Build 0)  -->
<!DOCTYPE svg PUBLIC "-//W3C//DTD SVG 1.1//EN" "http://www.w3.org/Graphics/SVG/1.1/DTD/svg11.dtd">
<svg version="1.1" xmlns="http://www.w3.org/2000/svg" xmlns:xlink="http://www.w3.org/1999/xlink" x="0px" y="0px"
	 width="545.085px" height="454.902px" viewBox="0 0 545.085 454.902" style="enable-background:new 0 0 545.085 454.902;"
	 xml:space="preserve">
<g id="Boxes">
	<g id="Boxes_1_">
		<g>
			
				<polygon style="fill:#FFFFFF;stroke:#222221;stroke-width:2;stroke-linecap:round;stroke-linejoin:round;stroke-miterlimit:10;" points="
				121.689,314.549 1.005,244.877 1.005,175.2 121.689,244.871 			"/>
			
				<polygon style="fill:#222221;stroke:#222221;stroke-width:2;stroke-linecap:round;stroke-linejoin:round;stroke-miterlimit:10;" points="
				121.684,244.877 302.71,140.361 182.027,70.678 1,175.2 			"/>
			
				<polygon style="fill:#FFFFFF;stroke:#222221;stroke-width:2;stroke-linecap:round;stroke-linejoin:round;stroke-miterlimit:10;" points="
				121.678,314.547 121.678,244.87 302.716,140.36 302.716,210.038 			"/>
		</g>
		<g>
			
				<polygon style="fill:#FFFFFF;stroke:#222221;stroke-width:2;stroke-linecap:round;stroke-linejoin:round;stroke-miterlimit:10;" points="
				121.689,244.871 1.005,175.199 1.005,105.522 121.689,175.193 			"/>
			
				<polygon style="fill:#222221;stroke:#222221;stroke-width:2;stroke-linecap:round;stroke-linejoin:round;stroke-miterlimit:10;" points="
				121.684,175.199 302.71,70.684 182.027,1 1,105.522 			"/>
			
				<polygon style="fill:#FFFFFF;stroke:#222221;stroke-width:2;stroke-linecap:round;stroke-linejoin:round;stroke-miterlimit:10;" points="
				121.678,244.869 121.678,175.192 302.716,70.683 302.716,140.36 			"/>
		</g>
		<g>
			
				<polygon style="fill:#FFFFFF;stroke:#222221;stroke-width:2;stroke-linecap:round;stroke-linejoin:round;stroke-miterlimit:10;" points="
				242.374,384.229 121.69,314.557 121.69,244.88 242.374,314.551 			"/>
			
				<polygon style="fill:#222221;stroke:#222221;stroke-width:2;stroke-linecap:round;stroke-linejoin:round;stroke-miterlimit:10;" points="
				242.369,314.557 423.394,210.041 302.712,140.357 121.685,244.88 			"/>
			
				<polygon style="fill:#FFFFFF;stroke:#222221;stroke-width:2;stroke-linecap:round;stroke-linejoin:round;stroke-miterlimit:10;" points="
				242.363,384.227 242.363,314.55 423.401,210.04 423.401,279.718 			"/>
		</g>
		<g>
			
				<polygon style="fill:#FFFFFF;stroke:#222221;stroke-width:2;stroke-linecap:round;stroke-linejoin:round;stroke-miterlimit:10;" points="
				242.374,314.551 121.69,244.879 121.69,175.202 242.374,244.873 			"/>
			
				<polygon style="fill:#222221;stroke:#222221;stroke-width:2;stroke-linecap:round;stroke-linejoin:round;stroke-miterlimit:10;" points="
				242.369,244.879 423.394,140.363 302.712,70.68 121.685,175.202 			"/>
			
				<polygon style="fill:#FFFFFF;stroke:#222221;stroke-width:2;stroke-linecap:round;stroke-linejoin:round;stroke-miterlimit:10;" points="
				242.363,314.549 242.363,244.872 423.401,140.362 423.401,210.04 			"/>
		</g>
		<g>
			
				<polygon style="fill:#FFFFFF;stroke:#222221;stroke-width:2;stroke-linecap:round;stroke-linejoin:round;stroke-miterlimit:10;" points="
				363.058,453.902 242.375,384.23 242.375,314.554 363.058,384.225 			"/>
			
				<polygon style="fill:#222221;stroke:#222221;stroke-width:2;stroke-linecap:round;stroke-linejoin:round;stroke-miterlimit:10;" points="
				363.054,384.23 544.079,279.715 423.396,210.031 242.369,314.554 			"/>
			
				<polygon style="fill:#FFFFFF;stroke:#222221;stroke-width:2;stroke-linecap:round;stroke-linejoin:round;stroke-miterlimit:10;" points="
				363.048,453.9 363.048,384.224 544.085,279.714 544.085,349.392 			"/>
		</g>
	</g>
</g>
<g id="Layer_1">
</g>
</svg>
