<?xml version="1.0" encoding="iso-8859-1"?>
<!-- Generator: Adobe Illustrator 16.0.4, SVG Export Plug-In . SVG Version: 6.00 Build 0)  -->
<!DOCTYPE svg PUBLIC "-//W3C//DTD SVG 1.1//EN" "http://www.w3.org/Graphics/SVG/1.1/DTD/svg11.dtd">
<svg version="1.1" xmlns="http://www.w3.org/2000/svg" xmlns:xlink="http://www.w3.org/1999/xlink" x="0px" y="0px"
	 width="545.087px" height="332.61px" viewBox="0 0 545.087 332.61" style="enable-background:new 0 0 545.087 332.61;"
	 xml:space="preserve">
<g id="Flag">
	<g id="Flag_1_">
		<path style="fill:#222221;" d="M302.712,19.064c-51.354,29.649-55.155,8.28-106.508,37.929
			c-51.353,29.649-30.947,64.993-82.3,94.643C62.554,181.282,52.351,163.61,1,193.259L242.375,332.61
			c51.351-29.647,61.554-11.975,112.905-41.623c51.353-29.647,30.945-64.993,82.299-94.642c51.353-29.649,55.154-8.28,106.508-37.93
			L302.712,19.064z"/>
		<path style="fill:#FFFFFF;stroke:#222221;stroke-width:2;stroke-linecap:round;stroke-linejoin:round;stroke-miterlimit:10;" d="
			M302.712,1c-51.354,29.649-55.155,8.28-106.508,37.929c-51.353,29.649-30.947,64.993-82.3,94.643
			C62.554,163.218,52.351,145.546,1,175.194l241.375,139.352c51.351-29.647,61.554-11.975,112.905-41.623
			c51.353-29.647,30.945-64.993,82.299-94.642c51.353-29.649,55.154-8.28,106.508-37.93L302.712,1z"/>
	</g>
</g>
<g id="Layer_1">
</g>
</svg>
