<?xml version="1.0" encoding="iso-8859-1"?>
<!-- Generator: Adobe Illustrator 16.0.4, SVG Export Plug-In . SVG Version: 6.00 Build 0)  -->
<!DOCTYPE svg PUBLIC "-//W3C//DTD SVG 1.1//EN" "http://www.w3.org/Graphics/SVG/1.1/DTD/svg11.dtd">
<svg version="1.1" xmlns="http://www.w3.org/2000/svg" xmlns:xlink="http://www.w3.org/1999/xlink" x="0px" y="0px"
	 width="675.081px" height="411.985px" viewBox="0 0 675.081 411.985" style="enable-background:new 0 0 675.081 411.985;"
	 xml:space="preserve">
<g id="Flag">
	<g id="Flag_1_">
		<path style="fill:#222221;" d="M374.931,23.388c-63.646,36.747-68.357,10.262-132.002,47.007
			c-63.645,36.747-38.355,80.55-102,117.297C77.287,224.436,64.643,202.533,1,239.279l299.151,172.707
			c63.642-36.744,76.287-14.842,139.93-51.586c63.645-36.744,38.354-80.551,101.998-117.297
			c63.645-36.747,68.356-10.262,132.002-47.008L374.931,23.388z"/>
		<path style="fill:#FFFFFF;stroke:#222221;stroke-width:2;stroke-linecap:round;stroke-linejoin:round;stroke-miterlimit:10;" d="
			M374.931,1c-63.646,36.746-68.357,10.262-132.002,47.007c-63.645,36.747-38.355,80.55-102,117.296
			C77.287,202.046,64.643,180.144,1,216.891l299.151,172.707c63.642-36.744,76.287-14.842,139.93-51.586
			c63.645-36.744,38.354-80.551,101.998-117.295c63.645-36.749,68.356-10.264,132.002-47.01L374.931,1z"/>
	</g>
</g>
<g id="Layer_1">
</g>
</svg>
