<?xml version="1.0" encoding="iso-8859-1"?>
<!-- Generator: Adobe Illustrator 16.0.4, SVG Export Plug-In . SVG Version: 6.00 Build 0)  -->
<!DOCTYPE svg PUBLIC "-//W3C//DTD SVG 1.1//EN" "http://www.w3.org/Graphics/SVG/1.1/DTD/svg11.dtd">
<svg version="1.1" xmlns="http://www.w3.org/2000/svg" xmlns:xlink="http://www.w3.org/1999/xlink" x="0px" y="0px"
	 width="545.104px" height="663.941px" viewBox="0 0 545.104 663.941" style="enable-background:new 0 0 545.104 663.941;"
	 xml:space="preserve">
<g id="Stairs">
	<g id="Stairs_1_">
		
			<polygon style="fill:#FFFFFF;stroke:#222221;stroke-width:2;stroke-linecap:round;stroke-linejoin:round;stroke-miterlimit:10;" points="
			1.001,140.361 242.37,1 302.713,35.845 61.343,175.199 		"/>
		
			<polygon style="fill:#222221;stroke:#222221;stroke-width:2;stroke-linecap:round;stroke-linejoin:round;stroke-miterlimit:10;" points="
			61.343,175.185 302.713,35.845 302.713,105.521 61.333,244.861 		"/>
		
			<polygon style="fill:#FFFFFF;stroke:#222221;stroke-width:2;stroke-linecap:round;stroke-linejoin:round;stroke-miterlimit:10;" points="
			61.333,244.871 302.701,105.509 363.045,140.355 121.676,279.708 		"/>
		
			<polygon style="fill:#222221;stroke:#222221;stroke-width:2;stroke-linecap:round;stroke-linejoin:round;stroke-miterlimit:10;" points="
			121.676,279.695 363.045,140.355 363.045,210.031 121.664,349.371 		"/>
		
			<polygon style="fill:#FFFFFF;stroke:#222221;stroke-width:2;stroke-linecap:round;stroke-linejoin:round;stroke-miterlimit:10;" points="
			121.688,349.393 363.057,210.031 423.396,244.876 182.029,384.23 		"/>
		
			<polygon style="fill:#222221;stroke:#222221;stroke-width:2;stroke-linecap:round;stroke-linejoin:round;stroke-miterlimit:10;" points="
			182.029,384.217 423.396,244.876 423.396,314.552 182.018,453.893 		"/>
		
			<polygon style="fill:#FFFFFF;stroke:#222221;stroke-width:2;stroke-linecap:round;stroke-linejoin:round;stroke-miterlimit:10;" points="
			182.041,453.914 423.408,314.552 483.752,349.398 242.381,488.752 		"/>
		
			<polygon style="fill:#222221;stroke:#222221;stroke-width:2;stroke-linecap:round;stroke-linejoin:round;stroke-miterlimit:10;" points="
			242.381,488.738 483.752,349.398 483.752,419.074 242.374,558.414 		"/>
		
			<polygon style="fill:#FFFFFF;stroke:#222221;stroke-width:2;stroke-linecap:round;stroke-linejoin:round;stroke-miterlimit:10;" points="
			242.393,558.436 483.764,419.074 544.104,453.92 302.736,593.273 		"/>
		
			<polygon style="fill:#222221;stroke:#222221;stroke-width:2;stroke-linecap:round;stroke-linejoin:round;stroke-miterlimit:10;" points="
			302.736,593.26 544.104,453.92 544.104,523.596 302.725,662.936 		"/>
		
			<polyline style="fill:#FFFFFF;stroke:#222221;stroke-width:2;stroke-linecap:round;stroke-linejoin:round;stroke-miterlimit:10;" points="
			1,140.363 61.34,175.207 61.34,244.884 121.684,279.722 121.684,349.4 182.014,384.232 182.014,453.922 242.374,488.75 
			242.374,558.426 302.713,593.266 302.713,662.941 1,488.75 1,140.368 		"/>
	</g>
</g>
<g id="Layer_1">
</g>
</svg>
