<?xml version="1.0" encoding="iso-8859-1"?>
<!-- Generator: Adobe Illustrator 16.0.4, SVG Export Plug-In . SVG Version: 6.00 Build 0)  -->
<!DOCTYPE svg PUBLIC "-//W3C//DTD SVG 1.1//EN" "http://www.w3.org/Graphics/SVG/1.1/DTD/svg11.dtd">
<svg version="1.1" xmlns="http://www.w3.org/2000/svg" xmlns:xlink="http://www.w3.org/1999/xlink" x="0px" y="0px" width="846.8px"
	 height="698.8px" viewBox="0 0 846.8 698.8" style="enable-background:new 0 0 846.8 698.8;" xml:space="preserve">
<style type="text/css">
<![CDATA[
	.st0{fill:#222221;stroke:#222221;stroke-width:2;stroke-linecap:round;stroke-linejoin:round;stroke-miterlimit:10;}
	.st1{fill:none;stroke:#222221;stroke-width:2;stroke-linecap:round;stroke-linejoin:round;stroke-miterlimit:10;}
	.st2{fill:#FFFFFF;stroke:#222221;stroke-width:2;stroke-linecap:round;stroke-linejoin:round;stroke-miterlimit:10;}
	.st3{fill:#222221;}
	.st4{display:inline;}
	.st5{display:none;}
]]>
</style>
<g id="Boxes_1_">
	<g id="Boxes">
		<g>
			<polygon class="st2" points="242.4,419.1 121.7,349.4 121.7,279.7 242.4,349.4 			"/>
			<polygon class="st0" points="242.4,349.4 423.4,244.9 302.7,175.2 121.7,279.7 			"/>
			<polygon class="st2" points="242.4,419.1 242.4,349.4 423.4,244.9 423.4,314.6 			"/>
		</g>
		<g>
			<polygon class="st2" points="242.4,349.4 121.7,279.7 121.7,210 242.4,279.7 			"/>
			<polygon class="st2" points="242.4,279.7 423.4,175.2 302.7,105.5 121.7,210 			"/>
			<polygon class="st2" points="242.4,349.4 242.4,279.7 423.4,175.2 423.4,244.9 			"/>
		</g>
		<g>
			<polygon class="st2" points="363.1,488.8 242.4,419.1 242.4,349.4 363.1,419.1 			"/>
			<polygon class="st0" points="363,419.1 544.1,314.6 423.4,244.9 242.4,349.4 			"/>
			<polygon class="st2" points="363,488.7 363,419.1 544.1,314.6 544.1,384.2 			"/>
		</g>
		<g>
			<polygon class="st2" points="363.1,419.1 242.4,349.4 242.4,279.7 363.1,349.4 			"/>
			<polygon class="st2" points="363,349.4 544.1,244.9 423.4,175.2 242.4,279.7 			"/>
			<polygon class="st0" points="363,419.1 363,349.4 544.1,244.9 544.1,314.6 			"/>
		</g>
		<g>
			<polygon class="st2" points="483.7,558.4 363.1,488.8 363.1,419.1 483.7,488.7 			"/>
			<polygon class="st2" points="483.7,488.8 664.8,384.2 544.1,314.6 363,419.1 			"/>
			<polygon class="st0" points="483.7,558.4 483.7,488.7 664.8,384.2 664.8,453.9 			"/>
		</g>
	</g>
</g>
</svg>
