<?xml version="1.0" encoding="iso-8859-1"?>
<!-- Generator: Adobe Illustrator 16.0.4, SVG Export Plug-In . SVG Version: 6.00 Build 0)  -->
<!DOCTYPE svg PUBLIC "-//W3C//DTD SVG 1.1//EN" "http://www.w3.org/Graphics/SVG/1.1/DTD/svg11.dtd">
<svg version="1.1" xmlns="http://www.w3.org/2000/svg" xmlns:xlink="http://www.w3.org/1999/xlink" x="0px" y="0px" width="846.8px"
	 height="698.8px" viewBox="0 0 846.8 698.8" style="enable-background:new 0 0 846.8 698.8;" xml:space="preserve">
<style type="text/css">
<![CDATA[
	.st0{fill:#222221;stroke:#222221;stroke-width:2;stroke-linecap:round;stroke-linejoin:round;stroke-miterlimit:10;}
	.st1{fill:none;stroke:#222221;stroke-width:2;stroke-linecap:round;stroke-linejoin:round;stroke-miterlimit:10;}
	.st2{fill:#FFFFFF;stroke:#222221;stroke-width:2;stroke-linecap:round;stroke-linejoin:round;stroke-miterlimit:10;}
	.st3{fill:#222221;}
	.st4{display:inline;}
	.st5{display:none;}
]]>
</style>
<g id="Flag_1_">
	<g id="Flag">
		<path class="st3" d="M483.7,210.7c-51.4,29.6-55.2,8.3-106.5,37.9c-51.4,29.6-30.9,65-82.3,94.6c-51.4,29.6-61.6,12-112.9,41.6
			l241.4,139.4c51.4-29.6,61.6-12,112.9-41.6c51.4-29.6,30.9-65,82.3-94.6c51.4-29.6,55.2-8.3,106.5-37.9L483.7,210.7z"/>
		<path class="st2" d="M483.7,192.6c-51.4,29.6-55.2,8.3-106.5,37.9c-51.4,29.6-30.9,65-82.3,94.6c-51.4,29.6-61.6,12-112.9,41.6
			l241.4,139.4c51.4-29.6,61.6-12,112.9-41.6c51.4-29.6,30.9-65,82.3-94.6c51.4-29.6,55.2-8.3,106.5-37.9L483.7,192.6z"/>
	</g>
</g>
</svg>
