<?xml version="1.0" encoding="iso-8859-1"?>
<!-- Generator: Adobe Illustrator 16.0.4, SVG Export Plug-In . SVG Version: 6.00 Build 0)  -->
<!DOCTYPE svg PUBLIC "-//W3C//DTD SVG 1.1//EN" "http://www.w3.org/Graphics/SVG/1.1/DTD/svg11.dtd">
<svg version="1.1" xmlns="http://www.w3.org/2000/svg" xmlns:xlink="http://www.w3.org/1999/xlink" x="0px" y="0px" width="846.8px"
	 height="698.8px" viewBox="0 0 846.8 698.8" style="enable-background:new 0 0 846.8 698.8;" xml:space="preserve">
<style type="text/css">
<![CDATA[
	.st0{fill:#222221;stroke:#222221;stroke-width:2;stroke-linecap:round;stroke-linejoin:round;stroke-miterlimit:10;}
	.st1{fill:none;stroke:#222221;stroke-width:2;stroke-linecap:round;stroke-linejoin:round;stroke-miterlimit:10;}
	.st2{fill:#FFFFFF;stroke:#222221;stroke-width:2;stroke-linecap:round;stroke-linejoin:round;stroke-miterlimit:10;}
	.st3{fill:#222221;}
	.st4{display:inline;}
	.st5{display:none;}
]]>
</style>
<g id="Stairs_1_">
	<g id="Stairs">
		<polygon class="st2" points="317.8,236.2 438.5,166.5 468.6,183.9 347.9,253.6 		"/>
		<polygon class="st0" points="347.9,253.6 468.6,183.9 468.6,218.7 347.9,288.4 		"/>
		<polygon class="st2" points="347.9,288.4 468.6,218.7 498.8,236.2 378.1,305.8 		"/>
		<polygon class="st0" points="378.1,305.8 498.8,236.2 498.8,271 378.1,340.7 		"/>
		<polygon class="st2" points="378.1,340.7 498.8,271 529,288.4 408.3,358.1 		"/>
		<polygon class="st0" points="408.3,358.1 529,288.4 529,323.3 408.3,392.9 		"/>
		<polygon class="st2" points="408.3,392.9 529,323.3 559.1,340.7 438.5,410.4 		"/>
		<polygon class="st0" points="438.5,410.4 559.1,340.7 559.1,375.5 438.5,445.2 		"/>
		<polygon class="st2" points="438.5,445.2 559.2,375.5 589.3,392.9 468.6,462.6 		"/>
		<polygon class="st0" points="468.6,462.6 589.3,392.9 589.3,427.8 468.6,497.5 		"/>
		<polyline class="st2" points="317.8,236.2 347.9,253.6 347.9,288.4 378.1,305.8 378.1,340.7 408.3,358.1 408.3,392.9 438.5,410.4 
			438.5,445.2 468.6,462.6 468.6,497.5 317.8,410.4 317.8,236.2 		"/>
	</g>
</g>
</svg>
